<?xml version="1.0" encoding="UTF-8"?>
<svg id="Layer_1" style="background:transparent" data-name="Layer 1" xmlns="http://www.w3.org/2000/svg" viewBox="0 0 231.87 232.84">
  <defs>
    <style>
      .cls-1 {
        fill: #fff;
      }
    </style>
  </defs>
  <polyline class="cls-1" points="145.45 22.07 126.76 35.41 133.69 57.3 115.23 43.65 96.55 57.01 103.83 35.23 85.35 21.59 108.31 21.78 115.57 0 122.49 21.9 145.45 22.07"/>
  <path class="cls-1" d="M99.75,153.27s.63-21.37-8.03-37c-14.13-25.5-45.09-36.78-45.09-36.78l-.41-12.63s32.91,14.88,47.3,46.48c7.9,17.33,7.15,39.9,7.15,39.9l-.92.03Z"/>
  <path class="cls-1" d="M131.06,153.27s-.63-21.37,8.03-37c14.14-25.5,45.09-36.78,45.09-36.78l.41-12.63s-32.91,14.88-47.3,46.48c-7.9,17.33-7.15,39.9-7.15,39.9l.92.03Z"/>
  <path class="cls-1" d="M49.01,49.16s61.84,38.46,58.46,104.11h1.32s4.92-72.41-46.92-110.24l-12.86,6.13Z"/>
  <path class="cls-1" d="M183.08,49.16s-61.84,38.46-58.46,104.11h-1.32s-4.92-72.41,46.92-110.24l12.86,6.13Z"/>
  <path class="cls-1" d="M123.67,73.83s-5.62,6.68-7.31,45.36h-.85c-1.69-38.68-7.31-45.36-7.31-45.36l7.73-11.89,7.73,11.89Z"/>
  <g>
    <path class="cls-1" d="M169.65,183.51l8.8-14.3h-8.43l-5.01,9.01-5.04-9.01h-8.81l8.81,14.02-5.99,9.73-8.08-23.75h-9.55l-8.56,25.06v-25.06h-9.05l-6.57,19.97-6.57-19.97h-3.2l-5.94,11.41v18.11h7.07v-17.45l5.67,17.45h5.66l5.7-17.53v17.53h13.53l1.78-5.66h10.25l1.77,5.66h0s0,0,0,0h11.02l5.75-10.34,6.12,10.34h8.85l-9.96-15.22ZM137.67,186.78l3.31-11.04,3.31,11.04h-6.61Z"/>
    <g>
      <path class="cls-1" d="M96.45,175.41v-6.2h-20.38v29.52h10.96l3.23-6.2h-6.41v-5.66h9.36l3.25-6.25h-12.61v-5.21h12.61Z"/>
      <path class="cls-1" d="M65.92,181.7c-.68.63-1.87.95-3.58.95h-4.01v-7.49h3.88c1.73,0,2.96.31,3.66.91.71.61,1.06,1.53,1.06,2.77s-.34,2.22-1.01,2.86ZM69.91,186.9c3.03-1.73,4.55-4.53,4.55-8.39,0-2.87-.93-5.13-2.79-6.8-1.86-1.67-4.83-2.5-8.91-2.5h-11.87v29.52h7.45v-10.21h4.58l4.96,10.21h8.19l-6.16-11.83Z"/>
    </g>
    <path class="cls-1" d="M182.85,170.44c0,.76-.56,1.23-1.23,1.23s-1.23-.47-1.23-1.23.56-1.23,1.23-1.23,1.23.47,1.23,1.23ZM182.62,170.44c0-.64-.46-1.04-1-1.04s-1.01.39-1.01,1.04.46,1.04,1.01,1.04,1-.4,1-1.04ZM181.93,170.55l.31.55h-.37l-.27-.51h-.15v.51h-.34v-1.35h.59c.32,0,.5.16.5.43,0,.17-.1.31-.27.37ZM181.45,170.36h.19c.14,0,.22-.06.22-.18,0-.12-.07-.18-.22-.18h-.19v.35Z"/>
  </g>
  <g>
    <path class="cls-1" d="M0,208.62h2.72v10.72h13.93v-10.72h2.72v24.13h-2.72v-10.86H2.72v10.86H0v-24.13Z"/>
    <path class="cls-1" d="M35.12,208.44h2.55l11,24.31h-2.93l-2.83-6.38h-13.14l-2.86,6.38h-2.79l11-24.31ZM41.85,223.89l-5.48-12.27-5.52,12.27h11Z"/>
    <path class="cls-1" d="M53.42,208.62h2.72v21.62h13.58v2.52h-16.31v-24.13Z"/>
    <path class="cls-1" d="M74.76,208.62h2.72v21.62h13.58v2.52h-16.31v-24.13Z"/>
  </g>
  <g>
    <path class="cls-1" d="M136.57,208.53h17.46v2.53h-14.72v8.68h13.16v2.5h-13.16v10.59h-2.74v-24.31Z"/>
    <path class="cls-1" d="M165.56,208.36h2.57l11.08,24.48h-2.95l-2.85-6.42h-13.23l-2.88,6.42h-2.81l11.08-24.48ZM172.33,223.91l-5.52-12.36-5.56,12.36h11.08Z"/>
    <path class="cls-1" d="M183.99,208.53h2.78l8.85,13.26,8.85-13.26h2.78v24.31h-2.74v-19.69l-8.85,13.02h-.14l-8.86-12.99v19.65h-2.67v-24.31Z"/>
    <path class="cls-1" d="M214.12,208.53h17.57v2.5h-14.82v8.3h13.26v2.5h-13.26v8.51h15v2.5h-17.74v-24.31Z"/>
  </g>
  <g>
    <path class="cls-1" d="M102.59,220.63v-.03c0-3.13,2.35-5.88,5.81-5.88s5.78,2.71,5.78,5.84v.03c0,3.13-2.35,5.88-5.81,5.88s-5.78-2.71-5.78-5.84ZM112.85,220.63v-.03c0-2.58-1.88-4.69-4.48-4.69s-4.45,2.08-4.45,4.66v.03c0,2.58,1.88,4.69,4.48,4.69s4.45-2.08,4.45-4.66Z"/>
    <path class="cls-1" d="M116.88,214.91h8.17v1.19h-6.88v4.06h6.15v1.17h-6.15v4.95h-1.28v-11.36Z"/>
  </g>
</svg>